<svg width="1719" height="1324" viewBox="0 0 1719 1324" fill="none" xmlns="http://www.w3.org/2000/svg">
<path d="M991.599 1121.07C929.703 1216.45 790.103 1216.45 728.206 1121.07L259.892 399.466C177.485 272.489 304.794 113.923 446.578 166.942L804.913 300.937C840.374 314.197 879.432 314.197 914.892 300.937L1273.23 166.942C1415.01 113.923 1542.32 272.49 1459.91 399.466L991.599 1121.07Z" fill="#9C26E4" fill-opacity="0.33"/>
<path d="M990.609 904.198C928.46 997.368 791.54 997.368 729.391 904.198L540.744 621.389C456.581 495.217 582.502 334.874 725.03 386.728L806.323 416.303C840.996 428.918 879.004 428.918 913.677 416.303L994.97 386.728C1137.5 334.874 1263.42 495.216 1179.26 621.389L990.609 904.198Z" fill="#9C26E4" fill-opacity="0.33"/>
<ellipse cx="860.5" cy="123.5" rx="130.5" ry="123.5" transform="rotate(-180 860.5 123.5)" fill="#9C26E4" fill-opacity="0.2"/>
</svg>
